<?xml version="1.0" standalone="no"?>
<!DOCTYPE svg PUBLIC "-//W3C//DTD SVG 20010904//EN"
 "http://www.w3.org/TR/2001/REC-SVG-20010904/DTD/svg10.dtd">
<svg version="1.0" xmlns="http://www.w3.org/2000/svg"
 width="512.000000pt" height="512.000000pt" viewBox="0 0 512.000000 512.000000"
 preserveAspectRatio="xMidYMid meet">
<metadata>
Created by potrace 1.14, written by Peter Selinger 2001-2017
</metadata>
<g transform="translate(0.000000,512.000000) scale(0.100000,-0.100000)"
fill="#000000" stroke="none">
<path d="M2963 3674 c-63 -31 -46 -5 -361 -559 -137 -242 -362 -638 -499 -880
-346 -608 -326 -568 -320 -638 7 -79 42 -131 110 -163 29 -13 63 -24 76 -24
44 0 104 24 135 55 18 16 160 255 316 530 156 275 403 709 548 965 245 429
266 469 270 521 7 98 -44 177 -137 208 -51 17 -82 14 -138 -15z"/>
<path d="M1205 3281 c-58 -30 -613 -608 -642 -670 -31 -63 -29 -117 4 -179 41
-75 593 -646 645 -666 47 -20 108 -20 151 -2 69 29 126 115 127 191 0 76 -34
124 -252 349 -115 118 -208 217 -208 221 0 4 93 103 208 221 218 226 252 273
252 350 0 57 -42 136 -91 170 -55 38 -137 44 -194 15z"/>
<path d="M3765 3286 c-70 -31 -124 -115 -125 -191 0 -76 34 -124 253 -349 114
-118 207 -217 207 -221 0 -4 -93 -103 -207 -221 -219 -225 -253 -273 -253
-349 1 -76 58 -162 127 -191 43 -18 104 -18 151 2 52 20 604 591 645 666 33
62 35 116 4 179 -30 64 -585 642 -643 669 -46 23 -115 25 -159 6z"/>
</g>
</svg>
